<?xml version="1.0"?>
<svg width="48" height="48" xmlns="http://www.w3.org/2000/svg" xmlns:svg="http://www.w3.org/2000/svg" enable-background="new 0 0 240 240" version="1.1" xml:space="preserve">
 <style type="text/css">.st0{fill:#04092A;}</style>

 <g class="layer">
  <title>Layer 1</title>
  <g id="svg_1">
   <path class="st0" d="m24.48,31.66c-0.13,-0.1 -0.29,-0.13 -0.44,-0.13c-0.21,0 -0.42,0.08 -0.56,0.23c-0.15,0.15 -0.23,0.35 -0.23,0.56c0,0.15 0.04,0.31 0.13,0.44c0.1,0.13 0.21,0.23 0.36,0.29c0.15,0.06 0.31,0.08 0.46,0.04c0.15,-0.04 0.31,-0.12 0.4,-0.21c0.12,-0.12 0.19,-0.25 0.21,-0.4c0.04,-0.15 0.02,-0.31 -0.04,-0.46c-0.06,-0.13 -0.17,-0.25 -0.31,-0.35z" id="svg_2"/>
   <path class="st0" d="m27.21,30.64l-2.26,-1.5c0.83,-0.73 1.73,-1.36 2.69,-1.9c-0.48,-0.12 -0.9,-0.38 -1.19,-0.77c0,0 -1.29,1.61 -2.21,2.15c1.29,-1.32 1.86,-2.44 2.09,-2.67c0.31,-0.31 0.98,0.06 1.04,0.4c-0.38,-0.12 -0.52,0.1 -0.29,0.31c0.31,0.31 0.84,0.5 1.07,0.27c0.25,-0.23 0.06,-0.96 -0.5,-1.5c-0.56,-0.56 -1.25,-0.77 -1.53,-0.5c-0.29,0.29 -0.84,1.59 -2.28,3.11l-1.21,-1.8l-1.75,1.15l2.17,1.44c-0.98,0.79 -2.05,1.44 -3.22,1.92c0.33,0.17 0.65,0.36 0.96,0.58c1,-0.63 1.96,-1.34 2.88,-2.09c-0.69,1.02 -2.3,2.15 -2.95,2.65c-0.31,0.21 -0.23,0.71 0.13,1.07c0.36,0.36 0.79,0.4 1.04,0.13c0.31,-0.31 0.9,-1.63 2.3,-3.15l1.25,1.88l1.78,-1.19z" id="svg_3"/>
   <path class="st0" d="m28.15,31.3c-0.02,-0.1 -0.06,-0.19 -0.12,-0.27c-0.06,-0.08 -0.15,-0.13 -0.25,-0.15s-0.19,-0.04 -0.29,-0.02c-0.1,0.02 -0.19,0.08 -0.25,0.13l-1.19,1.19c-0.08,0.08 -0.12,0.15 -0.13,0.25s-0.02,0.19 0.02,0.29c0.04,0.1 0.1,0.17 0.15,0.23c0.08,0.06 0.17,0.1 0.27,0.12l0.71,0.12l-0.06,-0.33l1.09,0.17l-0.17,-1.09l0.33,0.06l-0.12,-0.69z" id="svg_4"/>
   <path class="st0" d="m19.93,26.69c0.02,0.1 0.06,0.19 0.12,0.27s0.15,0.13 0.23,0.17s0.19,0.04 0.29,0.02c0.1,-0.02 0.19,-0.08 0.25,-0.13l1.19,-1.19c0.08,-0.08 0.12,-0.15 0.13,-0.25c0.02,-0.1 0.02,-0.19 -0.02,-0.29c-0.04,-0.1 -0.1,-0.17 -0.15,-0.23c-0.08,-0.06 -0.17,-0.1 -0.27,-0.12l-0.71,-0.12l0.06,0.33l-1.09,-0.17l0.17,1.09l-0.33,-0.06l0.13,0.67z" id="svg_5"/>
   <path class="st0" d="m33.27,14.58c0.25,0.02 0.48,0.12 0.67,0.25c0.19,0.15 0.35,0.35 0.44,0.58c0.27,-0.23 0.56,-1.04 0.44,-1.57c-0.48,-2.53 -6.33,-0.86 -9.31,-1.94c-0.08,0.71 0.9,1.9 1.82,2.32c-1.59,1.38 -2.99,4.14 -3.28,7.5c-0.27,-3.36 -1.71,-6.12 -3.28,-7.5c0.9,-0.44 1.9,-1.61 1.82,-2.32c-2.97,1.07 -8.83,-0.59 -9.32,1.94c-0.12,0.56 0.15,1.34 0.44,1.57c0.1,-0.23 0.23,-0.42 0.44,-0.58s0.42,-0.23 0.67,-0.25c2.99,-0.46 5.68,2.8 5.68,5.58c0.02,0.73 -0.13,1.44 -0.44,2.11s-0.75,1.25 -1.3,1.71l5.3,-1.29l5.3,1.29c-0.56,-0.46 -1,-1.06 -1.3,-1.71c-0.31,-0.65 -0.44,-1.38 -0.44,-2.11c-0.02,-2.78 2.65,-6.04 5.66,-5.58z" id="svg_6"/>
   <path class="st0" d="m35.88,8.02c-0.08,-0.23 2.34,-0.23 2.34,1.27c0,1.04 -1.46,1.5 -1.46,2.57c0.02,0.19 0.08,0.38 0.19,0.54c0.12,0.15 0.29,0.27 0.48,0.33c-0.4,-1.65 1.15,-0.79 1.59,-0.46c-0.83,-2.3 1.07,-2.24 0.92,-3.36c-0.12,-0.71 -1.75,-0.52 -2.34,-0.86c-1.04,-0.67 -2.26,-3.2 -3.09,-0.67c1.5,1.42 0.63,3.47 -1.3,3.47l0,0.33c2.28,-0.1 3.11,-1.8 2.67,-3.15z" id="svg_7"/>
   <path class="st0" d="m31.73,15.1c-0.59,0.17 -1.11,0.48 -1.55,0.9c0.4,-0.13 0.83,-0.15 1.23,-0.08c0.4,0.08 0.79,0.25 1.11,0.52c-0.02,-0.27 -0.1,-0.54 -0.23,-0.77c-0.15,-0.23 -0.33,-0.42 -0.56,-0.58z" id="svg_8"/>
   <path class="st0" d="m15.81,15.68c-0.13,0.23 -0.21,0.5 -0.23,0.77c0.71,-0.63 1.75,-0.63 2.34,-0.44c-0.42,-0.42 -0.96,-0.75 -1.55,-0.9c-0.23,0.15 -0.42,0.35 -0.56,0.58z" id="svg_9"/>
   <path class="st0" d="m32.35,31.07c-0.84,-0.86 -1.92,-0.94 -3.03,-0.61l0,1.13c0.65,-0.06 1.3,0.13 1.8,0.56c0.33,0.33 0.44,0.86 -0.06,1.46c0.12,0.38 0.35,0.92 -0.12,1.38c-0.25,0.19 -0.54,0.31 -0.84,0.36c-0.19,0.59 -0.46,0.77 -0.65,0.84c0.27,0.4 0.67,0.69 1.11,0.86s0.94,0.19 1.42,0.08c-0.19,-0.4 -0.31,-0.84 -0.33,-1.29c0.75,0.19 1.57,0.02 2.03,-0.44c-0.48,-0.31 -0.83,-0.79 -0.96,-1.32c0.69,0.02 1.52,-0.02 1.98,-0.81c-1.19,-0.48 -1.42,-1.27 -2.36,-2.21z" id="svg_10"/>
   <path class="st0" d="m25.35,37.97c0.52,-1.42 1.17,-2.9 2.28,-2.9c0.54,0 1.04,0.52 1.38,0.58c0.08,0.02 0.15,0 0.23,-0.02c0.08,-0.04 0.13,-0.08 0.17,-0.13c0.13,-0.21 0.21,-0.44 0.23,-0.69c0.27,-0.02 0.54,-0.08 0.81,-0.17c0.08,-0.02 0.13,-0.08 0.17,-0.13c0.04,-0.06 0.06,-0.13 0.04,-0.21c-0.04,-0.29 -0.13,-0.56 -0.27,-0.79c0.17,-0.15 0.31,-0.33 0.42,-0.54c0.04,-0.08 0.04,-0.15 0.02,-0.21c-0.02,-0.08 -0.06,-0.13 -0.12,-0.19c-0.38,-0.27 -0.86,-0.4 -1.34,-0.36l-0.02,0l0,0.83c0.02,0.19 -0.02,0.36 -0.08,0.56c-0.06,0.17 -0.17,0.33 -0.29,0.46c-0.13,0.13 -0.29,0.23 -0.46,0.31s-0.36,0.1 -0.54,0.1l-1.55,0c-0.46,-0.02 -0.92,0.1 -1.34,0.31c-0.4,0.21 -0.77,0.52 -1.02,0.92c-0.25,-0.38 -0.61,-0.69 -1.02,-0.92c-0.4,-0.21 -0.86,-0.33 -1.34,-0.31l-1.55,0c-0.19,0 -0.36,-0.02 -0.54,-0.1c-0.17,-0.08 -0.33,-0.17 -0.46,-0.31c-0.13,-0.13 -0.23,-0.29 -0.29,-0.46s-0.1,-0.36 -0.08,-0.56l0,-0.81l-0.02,0c-0.48,-0.04 -0.96,0.08 -1.34,0.35c-0.06,0.04 -0.1,0.12 -0.12,0.19c-0.02,0.08 0,0.15 0.02,0.21c0.1,0.21 0.25,0.38 0.42,0.54c-0.13,0.25 -0.23,0.52 -0.27,0.79c-0.02,0.08 0,0.15 0.04,0.21c0.04,0.06 0.1,0.12 0.17,0.13c0.25,0.1 0.52,0.15 0.81,0.17c0.02,0.25 0.1,0.48 0.23,0.69c0.04,0.06 0.1,0.12 0.17,0.13s0.15,0.04 0.23,0.02c0.35,-0.06 0.84,-0.58 1.38,-0.58c1.11,0 1.77,1.46 2.28,2.9c-2.53,0.59 -5.7,2.28 -6.33,4.14c-0.23,0.71 0.56,1.65 1.55,1.86c0.04,0 0.08,0 0.08,-0.04c0.52,-2.72 3.49,-4.78 5.03,-5.14c0.08,0.19 0.04,0.15 0.12,0.35c-1.67,0.79 -3.28,2.46 -3.76,4.43c-0.19,0.9 0.79,1.73 1.61,1.94c0.04,0 0.08,0 0.08,-0.04c0.15,-2.49 1.27,-4.62 2.26,-5.6c0.04,0.19 0.04,0.4 0.08,0.56c0,0 -1.04,2.84 -1.04,4.89c0,0.94 1.42,1.61 1.61,1.75c0.19,-0.12 1.61,-0.79 1.61,-1.75c0,-2.05 -1.04,-4.89 -1.04,-4.89c0.04,-0.15 0.04,-0.35 0.08,-0.56c1,0.98 2.09,3.13 2.26,5.6c0,0.04 0.04,0.04 0.08,0.04c0.83,-0.19 1.82,-1.04 1.61,-1.94c-0.48,-1.98 -2.09,-3.63 -3.76,-4.43c0.08,-0.19 0.04,-0.15 0.12,-0.35c1.55,0.35 4.51,2.42 5.03,5.14c0,0.04 0.04,0.04 0.08,0.04c1,-0.19 1.78,-1.15 1.55,-1.86c-0.67,-1.86 -3.84,-3.55 -6.37,-4.14z" id="svg_11"/>
   <path class="st0" d="m17.48,37.05c0.46,-0.17 0.84,-0.48 1.11,-0.86l0,0c-0.19,-0.08 -0.46,-0.25 -0.65,-0.84c-0.31,-0.04 -0.59,-0.17 -0.84,-0.36c-0.46,-0.46 -0.23,-1 -0.12,-1.38c-0.5,-0.59 -0.4,-1.13 -0.06,-1.46c0.25,-0.21 0.54,-0.36 0.84,-0.46c0.31,-0.1 0.63,-0.13 0.96,-0.1l0,-1.13c-1.09,-0.35 -2.19,-0.25 -3.03,0.61c-0.94,0.96 -1.17,1.73 -2.38,2.21c0.46,0.79 1.29,0.83 1.98,0.81c-0.15,0.54 -0.5,1.02 -0.96,1.32c0.46,0.46 1.3,0.63 2.03,0.44c-0.02,0.44 -0.13,0.88 -0.33,1.29c0.5,0.12 1,0.1 1.44,-0.08z" id="svg_12"/>
   <path class="st0" d="m9.07,12.26c0.44,-0.33 1.98,-1.19 1.59,0.46c0.19,-0.06 0.35,-0.17 0.48,-0.33c0.12,-0.15 0.19,-0.35 0.19,-0.54c0,-1.07 -1.46,-1.53 -1.46,-2.57c0,-1.5 2.42,-1.5 2.34,-1.27c-0.44,1.34 0.4,3.05 2.69,3.13l0,-0.31c-1.94,0 -2.82,-2.05 -1.3,-3.47c-0.83,-2.53 -2.05,0 -3.09,0.67c-0.59,0.36 -2.23,0.15 -2.34,0.86c-0.17,1.09 1.73,1.06 0.9,3.36z" id="svg_13"/>
   <path class="st0" d="m46.55,20.44c-2.57,1.19 -5.43,1.63 -8.23,1.27c0.04,-0.23 0.08,-0.44 0.12,-0.63c2.9,-0.36 5.24,-0.83 6.7,-1.67c1.71,-0.94 2.46,-3.2 1.59,-4.85c0,0 -0.02,-0.02 -0.02,-0.02s-0.02,0 -0.04,0c-0.02,0 -0.02,0 -0.04,0c-0.02,0 -0.02,0.02 -0.02,0.02c-0.48,0.52 -3.45,3.72 -8.04,4.7c-0.04,-0.23 -0.04,-0.48 -0.08,-0.71c2.26,-1.27 4.47,-2.72 5.51,-4.07c1.59,-2.01 1.42,-4.62 -0.08,-5.93c0,0 -0.02,-0.02 -0.02,-0.02c-0.02,0 -0.02,0 -0.04,0c-0.02,0 -0.02,0 -0.04,0c-0.02,0 -0.02,0.02 -0.02,0.02c-0.48,0.79 -4.91,7.98 -9.82,11.05c-0.08,0.04 -0.12,0.08 -0.19,0.12c-0.04,0.02 -0.06,0.04 -0.08,0.06c-0.02,0.04 -0.04,0.06 -0.04,0.1c0,0.04 0,0.08 0.02,0.12c0.02,0.04 0.04,0.06 0.08,0.08c0.29,0.25 0.52,0.56 0.67,0.92c0.15,0.35 0.23,0.73 0.25,1.09c0,1.38 -0.88,2.53 -2.46,2.76c-0.94,0.12 -1.9,0.06 -2.84,-0.17l0,4.13c0.79,-1.17 2.3,-1.67 3.3,-1.67c0.29,1.65 0.75,3.09 1.42,3.84c1.07,1.23 2.82,1.19 3.57,0.35c0.04,0 0.04,-0.08 0,-0.08c-0.44,-0.23 -2.97,-1.78 -3.49,-4.34l0.59,-0.23c0.83,1.34 2.01,2.53 2.97,2.99c1.61,0.75 3.09,0.4 3.76,-0.75c0.04,-0.04 0,-0.08 -0.04,-0.08c-1.04,-0.08 -4.09,-0.94 -5.39,-3.09c0.15,-0.13 0.31,-0.29 0.44,-0.44c1.34,1.04 3.28,1.94 4.68,2.13c1.61,0.19 3.45,-0.31 3.49,-2.17c0,-0.02 -0.02,-0.04 -0.02,-0.06s-0.04,-0.02 -0.06,-0.02c-0.56,0.04 -4.39,0.19 -7.1,-1.34c0.12,-0.17 0.21,-0.36 0.27,-0.56c0,0 4.13,0.98 6.06,0.71c1.94,-0.35 3.05,-1.78 2.86,-3.55c-0.1,0 -0.13,-0.04 -0.17,0z" id="svg_14"/>
   <path class="st0" d="m14.03,30.97c0.67,-0.75 1.15,-2.17 1.42,-3.84c1,0 2.53,0.5 3.3,1.67l0,-4.13c-0.92,0.23 -1.88,0.29 -2.84,0.17c-1.57,-0.23 -2.46,-1.38 -2.46,-2.76c0,-0.38 0.08,-0.75 0.25,-1.09c0.15,-0.35 0.38,-0.65 0.67,-0.92c0.04,-0.02 0.06,-0.06 0.08,-0.08s0.02,-0.08 0.02,-0.12c0,-0.04 -0.02,-0.08 -0.04,-0.1c-0.02,-0.04 -0.06,-0.06 -0.08,-0.06c-0.08,-0.04 -0.12,-0.08 -0.19,-0.12c-4.93,-3.09 -9.36,-10.28 -9.84,-11.07c0,0 -0.02,-0.02 -0.02,-0.02c-0.02,0 -0.02,0 -0.04,0s-0.02,0 -0.04,0c-0.02,0 -0.02,0.02 -0.02,0.02c-1.5,1.3 -1.67,3.91 -0.08,5.93c1.04,1.34 3.24,2.8 5.51,4.07c-0.04,0.23 -0.04,0.48 -0.08,0.71c-4.6,-0.98 -7.58,-4.18 -8.06,-4.7c0,0 -0.02,-0.02 -0.02,-0.02c-0.02,0 -0.02,0 -0.04,0s-0.02,0 -0.04,0c-0.02,0 -0.02,0.02 -0.02,0.02c-0.86,1.67 -0.12,3.91 1.59,4.85c1.46,0.83 3.8,1.3 6.7,1.67c0.04,0.19 0.08,0.4 0.12,0.63c-2.82,0.36 -5.68,-0.08 -8.23,-1.27c-0.04,-0.04 -0.08,0 -0.12,0.04c-0.19,1.78 0.92,3.2 2.86,3.55c1.94,0.27 6.06,-0.71 6.06,-0.71c0.08,0.19 0.17,0.38 0.27,0.56c-2.69,1.53 -6.54,1.38 -7.1,1.34c-0.02,0 -0.04,0.02 -0.06,0.02c-0.02,0.02 -0.02,0.04 -0.02,0.06c0.04,1.86 1.86,2.36 3.49,2.17c1.38,-0.19 3.32,-1.11 4.68,-2.13c0.13,0.15 0.29,0.31 0.44,0.44c-1.3,2.13 -4.36,2.99 -5.39,3.09c-0.04,0 -0.08,0.04 -0.04,0.08c0.67,1.15 2.13,1.5 3.76,0.75c0.94,-0.48 2.13,-1.67 2.97,-2.99l0.59,0.23c-0.52,2.57 -3.05,4.11 -3.49,4.34c-0.04,0 -0.04,0.08 0,0.08c0.73,0.83 2.48,0.86 3.55,-0.36z" id="svg_15"/>
   <path class="st0" d="m15.85,11.23l2.97,0c2.49,0 3.61,-1.53 3.95,-2.84l2.53,0c0.36,1.3 1.46,2.84 3.95,2.84l2.97,0c0.25,-0.35 0.48,-0.73 0.67,-1.11c0.46,-1.23 -0.12,-1.82 -1,-1.82l-1.15,1.04l-1.19,-0.98c-0.86,0 -1.46,0.56 -1,1.82c0.08,0.15 0.23,0.4 0.36,0.59c-1.07,-0.15 -2.42,-0.86 -2.69,-2.42c0.36,-0.56 0.69,-1.13 1,-1.73c0.71,-1.78 -0.19,-2.53 -1.5,-2.53l-1.71,1.98l-1.71,-1.98c-1.3,0 -2.23,0.75 -1.5,2.53c0.29,0.59 0.63,1.17 1,1.73c-0.27,1.53 -1.61,2.24 -2.69,2.42c0.12,-0.19 0.27,-0.44 0.36,-0.59c0.48,-1.27 -0.12,-1.82 -1,-1.82l-1.19,0.98l-1.15,-1.04c-0.86,0 -1.46,0.59 -1,1.82c0.17,0.4 0.4,0.77 0.67,1.11z" id="svg_16"/>
   <polygon class="st0" id="svg_17" points="17.018172880892052,7.446813862146314 17.59376680528419,7.446813862146314 17.517020077517145,6.717729282446101 18.246103723808687,6.794476010213145 18.246103723808687,6.199696337287918 17.517020077517145,6.276441664941956 17.59376680528419,5.547358018650414 17.018172880892052,5.547358018650414 17.094919608659097,6.276441664941956 16.385019377378967,6.199696337287918 16.385019377378967,6.794476010213145 17.094919608659097,6.717729282446101 "/>
   <polygon class="st0" id="svg_18" points="30.48705092340424,7.446813862146314 31.062642980979035,7.446813862146314 30.985894386394648,6.717729282446101 31.695792750857436,6.794476010213145 31.695792750857436,6.199696337287918 30.985894386394648,6.276441664941956 31.062642980979035,5.547358018650414 30.48705092340424,5.547358018650414 30.563792050719258,6.276441664941956 29.834708404427715,6.199696337287918 29.834708404427715,6.794476010213145 30.563792050719258,6.717729282446101 "/>
   <polygon class="st0" id="svg_19" points="23.599118446614057,3.763018999874731 24.46250839979359,3.763018999874731 24.38576353884389,2.6885788122661722 25.325896486155784,2.8036973871276487 25.325896486155784,1.9594943492420427 24.38576353884389,2.0554265921900097 24.46250839979359,1.0001727364949602 23.599118446614057,1.0001727364949602 23.6950523230272,2.0554265921900097 22.73572849343452,1.9594943492420427 22.73572849343452,2.8036973871276487 23.6950523230272,2.6885788122661722 "/>
  </g>
 </g>
</svg>